<svg width="26" height="33" viewBox="0 0 26 33" fill="none" xmlns="http://www.w3.org/2000/svg">
<path d="M4.93364 33H21.0664C24.3201 33 26 31.2792 26 27.9898V14.3604H14.6496C12.7579 14.3604 11.8498 13.4467 11.8498 11.5431V0H4.93364C1.69499 0 0 1.72081 0 5.02538V27.9898C0 31.2792 1.69499 33 4.93364 33ZM14.9371 12.1371H25.8487C25.7579 11.4365 25.2584 10.7817 24.4715 9.97462L16.1932 1.53807C15.4366 0.761421 14.7555 0.243655 14.0594 0.152284V11.2538C14.0745 11.8477 14.362 12.1371 14.9371 12.1371ZM7.12806 21.1066C6.4773 21.1066 6.00815 20.6345 6.00815 20.0254C6.00815 19.4162 6.4773 18.9442 7.12806 18.9442H18.9173C19.5378 18.9442 20.0221 19.4162 20.0221 20.0254C20.0221 20.6345 19.5378 21.1066 18.9173 21.1066H7.12806ZM7.12806 26.8173C6.4773 26.8173 6.00815 26.3452 6.00815 25.736C6.00815 25.1269 6.4773 24.6548 7.12806 24.6548H18.9173C19.5378 24.6548 20.0221 25.1269 20.0221 25.736C20.0221 26.3452 19.5378 26.8173 18.9173 26.8173H7.12806Z" fill="#D9D9D9"/>
</svg>
