<svg width="30" height="30" viewBox="0 0 30 30" fill="none" xmlns="http://www.w3.org/2000/svg">
<path d="M16.9875 28.4301L16.9857 28.4378L16.984 28.4455C16.9017 28.819 16.6735 29 16.297 29H13.7171C13.3214 29 13.0972 28.814 13.016 28.4455L13.0143 28.4378L13.0125 28.4301L12.3076 25.4555L12.1818 24.9247L11.6674 24.7431C11.216 24.5838 10.7952 24.4126 10.4041 24.2301L9.91414 24.0015L9.45453 24.2862L6.86055 25.8934L6.86028 25.8935C6.52161 26.1035 6.20692 26.0512 5.98083 25.826C5.98044 25.8256 5.98005 25.8252 5.97966 25.8248L4.1779 24.009L4.17228 24.0033L4.16658 23.9978C3.92836 23.7652 3.88168 23.4388 4.09119 23.1213L4.09951 23.1087L4.10744 23.0959L5.70048 20.516L5.98404 20.0568L5.75581 19.5677C5.57235 19.1746 5.40553 18.7625 5.27972 18.3725L5.10634 17.835L4.55654 17.706L1.55372 17.0011L1.55374 17.001L1.54037 16.998C1.32644 16.9509 1.20518 16.8597 1.13482 16.7708C1.06335 16.6804 1 16.5361 1 16.3111V13.7735C1 13.3931 1.18432 13.165 1.54037 13.0865L1.55027 13.0844L1.56013 13.082L4.53475 12.363L5.06787 12.2341L5.24576 11.7153C5.40192 11.2598 5.57258 10.852 5.73524 10.486L5.94714 10.0092L5.6773 9.5627L4.08426 6.92642L4.07991 6.91923L4.07545 6.91212C3.84963 6.55223 3.9015 6.2759 4.13859 6.04432L4.13861 6.04435L4.14422 6.03878L5.9588 4.23816C6.12285 4.09365 6.26372 4.04252 6.37478 4.02962C6.4859 4.01671 6.63597 4.03411 6.83083 4.13716L9.44326 5.74373L9.91694 6.03503L10.4143 5.78634C10.7835 5.60177 11.2005 5.43651 11.6424 5.29355L12.1792 5.11988L12.3081 4.57063L13.013 1.56782L13.0131 1.56784L13.016 1.55446C13.0972 1.18602 13.3214 1 13.7171 1H16.297C16.6735 1 16.9017 1.18104 16.984 1.55446L16.9858 1.5628L16.9878 1.57111L17.7068 4.58803L17.833 5.1179L18.3467 5.29919C18.7991 5.45887 19.2151 5.62845 19.584 5.80657L20.0775 6.04481L20.5439 5.75705L23.1696 4.13692C23.4958 3.96491 23.7716 4.00178 24.0418 4.23871L25.8558 6.03878L25.8558 6.0388L25.8614 6.04432C26.0985 6.2759 26.1504 6.55223 25.9246 6.91212L25.9201 6.91923L25.9157 6.92642L24.3227 9.5627L24.0529 10.0092L24.2648 10.486L24.2815 10.5237C24.4492 10.9009 24.6155 11.2748 24.7462 11.6908L24.9157 12.2302L25.4652 12.363L28.4399 13.082L28.4497 13.0844L28.4596 13.0865C28.8157 13.165 29 13.3931 29 13.7735V16.3111C29 16.5361 28.9367 16.6804 28.8652 16.7708C28.7948 16.8597 28.6736 16.9509 28.4596 16.998L28.4596 16.998L28.4463 17.0011L25.4435 17.706L24.8937 17.835L24.7203 18.3725C24.5945 18.7625 24.4277 19.1746 24.2442 19.5677L24.016 20.0568L24.2995 20.516L25.8926 23.0959L25.9005 23.1087L25.9088 23.1213C26.1195 23.4405 26.0722 23.773 25.8389 24.0062L24.0203 25.8248C23.7907 26.0544 23.4786 26.0989 23.1615 25.8983L23.1616 25.8983L23.1515 25.8921L20.5434 24.2849L20.0844 24.0021L19.5959 24.2301C19.2048 24.4126 18.784 24.5838 18.3326 24.7431L17.8182 24.9247L17.6924 25.4555L16.9875 28.4301ZM9.07989 14.9859C9.07989 18.2535 11.7354 20.9342 15 20.9342C18.2769 20.9342 20.9342 18.2553 20.9342 14.9859C20.9342 11.7372 18.2694 9.07989 15 9.07989C11.7428 9.07989 9.07989 11.7391 9.07989 14.9859Z" stroke="#393A3A" stroke-width="2"/>
</svg>
