<svg width="59" height="53" viewBox="0 0 59 53" fill="none" xmlns="http://www.w3.org/2000/svg">
<path d="M14.1393 21.3762L24.8833 4.2027C25.2997 3.52392 25.8848 2.96455 26.5816 2.57909C27.2784 2.19362 28.0631 1.9952 28.8594 2.00315C29.4865 1.98051 30.1118 2.08382 30.6984 2.30697C31.2849 2.53012 31.8207 2.86858 32.2742 3.30235C32.7277 3.73611 33.0896 4.25638 33.3386 4.83241C33.5876 5.40844 33.7186 6.02854 33.7238 6.65606L33.7238 18.9651H52.2932C52.9793 18.9874 53.653 19.1546 54.2699 19.4558C54.8868 19.7571 55.4329 20.1855 55.8724 20.7129C56.3119 21.2403 56.6348 21.8547 56.8199 22.5158C57.0049 23.1769 57.0479 23.8697 56.9461 24.5486L53.5621 46.375C53.4178 47.5414 52.8524 48.615 51.9722 49.3939C51.092 50.1729 49.9577 50.6035 48.7823 50.6049L21.0341 50.6049C19.7131 50.6101 18.4093 50.3059 17.2271 49.7166L14.1816 48.1939" stroke="#494949" stroke-width="3" stroke-linecap="round" stroke-linejoin="round"/>
<path d="M14.1393 21.3763L14.1393 48.0671" stroke="#494949" stroke-width="3" stroke-linecap="round" stroke-linejoin="round"/>
<path d="M4.11496 48.0671H14.1399L14.1399 21.3763H4.11496C3.55404 21.3763 3.01609 21.5992 2.61946 21.9958C2.22283 22.3924 2 22.9304 2 23.4913L2 45.9522C2 46.5131 2.22283 47.051 2.61946 47.4477C3.01609 47.8443 3.55404 48.0671 4.11496 48.0671V48.0671Z" stroke="#494949" stroke-width="3" stroke-linecap="round" stroke-linejoin="round"/>
</svg>
