<svg width="36" height="36" viewBox="0 0 36 36" fill="none" xmlns="http://www.w3.org/2000/svg">
<path d="M24.5874 21.6368L20.4726 28.214C20.3131 28.474 20.0891 28.6882 19.8222 28.8358C19.5553 28.9835 19.2548 29.0595 18.9498 29.0564C18.7096 29.0651 18.4701 29.0255 18.2455 28.94C18.0209 28.8546 17.8157 28.725 17.642 28.5588C17.4683 28.3927 17.3297 28.1935 17.2343 27.9728C17.139 27.7522 17.0888 27.5147 17.0868 27.2744L17.0868 22.5602L9.97503 22.5602C9.71224 22.5517 9.45424 22.4876 9.21797 22.3723C8.98171 22.2569 8.77254 22.0928 8.60422 21.8909C8.4359 21.6889 8.31224 21.4536 8.24137 21.2004C8.1705 20.9472 8.15403 20.6818 8.19304 20.4218L9.48904 12.0626C9.54432 11.6159 9.76085 11.2047 10.0979 10.9064C10.435 10.6081 10.8695 10.4432 11.3196 10.4426L21.9468 10.4427C22.4527 10.4407 22.952 10.5572 23.4048 10.7829L24.5712 11.366" stroke="#494949" stroke-width="3" stroke-linecap="round" stroke-linejoin="round"/>
<path d="M24.5874 21.6367L24.5874 11.4146" stroke="#494949" stroke-width="3" stroke-linecap="round" stroke-linejoin="round"/>
<path d="M28.4266 11.4146L24.5872 11.4145L24.5872 21.6367L28.4266 21.6367C28.6414 21.6367 28.8474 21.5514 28.9993 21.3995C29.1512 21.2476 29.2366 21.0416 29.2366 20.8267L29.2366 12.2245C29.2366 12.0097 29.1512 11.8037 28.9993 11.6518C28.8474 11.4999 28.6414 11.4146 28.4266 11.4146V11.4146Z" stroke="#494949" stroke-width="3" stroke-linecap="round" stroke-linejoin="round"/>
<circle cx="17.9339" cy="17.9339" r="16.4339" stroke="#494949" stroke-width="3"/>
</svg>
