<svg width="37" height="33" viewBox="0 0 37 33" fill="none" xmlns="http://www.w3.org/2000/svg">
<path d="M0 15.5809C0 16.3825 0.60507 17.0761 1.57318 17.0761C2.04211 17.0761 2.46566 16.8141 2.84383 16.5058L17.8496 3.66495C18.2731 3.29499 18.7572 3.29499 19.1807 3.66495L34.1713 16.5058C34.5343 16.8141 34.9579 17.0761 35.4268 17.0761C36.3193 17.0761 37 16.5058 37 15.6117C37 15.0876 36.8034 14.6714 36.4101 14.3322L32.1594 10.6943V4.28156C32.1594 3.58788 31.7208 3.15625 31.0401 3.15625H28.9526C28.287 3.15625 27.8332 3.58788 27.8332 4.28156V6.97921L20.6631 0.84398C19.3471 -0.281327 17.6832 -0.281327 16.3671 0.84398L0.60507 14.3322C0.196648 14.6714 0 15.1338 0 15.5809ZM4.91619 29.4391C4.91619 31.6589 6.2776 33 8.53148 33H28.4836C30.7224 33 32.0989 31.6589 32.0989 29.4391V17.7236L19.4379 6.91755C18.8479 6.39344 18.137 6.40885 17.5621 6.91755L4.91619 17.7236V29.4391ZM22.4783 30.1019H14.5368V20.2362C14.5368 19.5117 15.0057 19.0493 15.7167 19.0493H21.3136C22.0245 19.0493 22.4783 19.5117 22.4783 20.2362V30.1019Z" fill="#D9D9D9"/>
</svg>
