<?xml version="1.0" encoding="utf-8"?>
<!-- Generator: Adobe Illustrator 28.1.0, SVG Export Plug-In . SVG Version: 6.00 Build 0)  -->
<svg version="1.1" id="Ebene_1" xmlns="http://www.w3.org/2000/svg" xmlns:xlink="http://www.w3.org/1999/xlink" x="0px" y="0px"
	 viewBox="0 0 847.7 928.4" style="enable-background:new 0 0 847.7 928.4;" xml:space="preserve">
<style type="text/css">
	.st0{fill:#4D4D4D;}
</style>
<g>
	<g>
		<path class="st0" d="M24.5,191.2c3.5-3.2,7.2-6.2,10.9-9.2c2-1.6,4-3.2,6-4.8c0.5-0.4,1-0.8,1.5-1.2c1.5-1.2-1.7,1.3,0.1-0.1
			c1.3-1,2.6-2,4-3c5.9-4.5,11.9-8.8,17.9-13.1c36.2-25.4,74.8-47.5,114.9-66.1c53.4-24.6,111.3-42.9,170.1-52.1
			C419.4,31,490.8,33.6,559,50.1c85.6,20.8,164.8,62.7,233.9,116.8c10,7.8,19.8,15.9,29.5,24.2c-0.9-2.1-1.8-4.2-2.6-6.4
			c0.4,4.8,0.7,9.5,0.9,14.3c0.6,13.2,0.7,26.5,0.5,39.7c-0.3,20.2-1.2,40.3-2.9,60.4c-1,12.2-2.2,24.3-3.7,36.4
			c-0.4,3.3-0.8,6.5-1.2,9.8c-0.2,1.8,0,0.2-0.1,0.7c-0.1,0.8-0.2,1.5-0.3,2.3c-0.2,1.7-0.5,3.3-0.7,5c-1,6.8-2,13.7-3.2,20.5
			c-4.9,29.4-11.2,58.7-19.1,87.5c-8.7,31.8-19.3,63.2-31.8,93.7c-6.1,14.8-13.6,31.3-21.2,46.5c-8.1,16.2-16.8,32-26.1,47.5
			c-19.4,32.3-41.4,62.7-66.2,90.9c-26.6,30.4-56.2,58.4-88.2,83c-35.6,27.4-74.2,50.9-114.5,70.6c-10.5,5.1-21.2,10-31.9,14.6
			c3,0,6.1,0,9.1,0c-3.7-1.7-7.4-3.6-11-5.4c-10.2-5.3-20.1-11-29.9-16.9c-15.1-9.2-29.8-19-44.1-29.4c-4.3-3.1-8.5-6.2-12.7-9.4
			c-1-0.8-2.1-1.6-3.1-2.4c-0.5-0.4-1-0.8-1.6-1.2c1.4,1.1,0.1,0.1-0.5-0.4c-2.2-1.7-4.5-3.5-6.7-5.2c-9.4-7.5-18.7-15.2-27.7-23.2
			c-20.5-18-40-37.2-58.4-57.3c-21.3-23.3-40.1-46.7-57.9-72c-20-28.4-38-58.2-53.8-89.1c-17.4-34-31.9-69.1-43.9-105.4
			c-13.4-40.7-23.4-82.5-30.2-124.7c-7.6-47.3-11-95.2-11.1-143c0-12.8,0.2-25.6,0.7-38.3c0.4-11.6-17.6-11.6-18,0
			c-2.4,69.6,2,139.5,14.9,208C34.9,451.1,52.2,508,75.8,562.3c20.2,46.6,45.1,91.1,74.4,132.6c25.3,35.8,53.6,69.6,84.7,100.5
			c25.4,25.3,52.6,48.7,81.3,70.2c19.9,14.9,40.6,28.8,62,41.3c10,5.8,20.1,11.5,30.6,16.4c3.4,1.6,6.5,2.1,10.2,0.5
			c15.4-6.6,30.6-13.8,45.5-21.4c27.8-14.3,54.7-30.5,80.3-48.6c46.7-33,89.1-72,125.4-116.2c33-40.1,61.1-84,84-130.6
			c20.9-42.4,37.8-86.9,50.7-132.4c11.2-39.3,19.5-79.4,25.2-119.9c4.5-32.4,7.5-65,8.6-97.7c0.7-19.8,0.8-39.7-0.2-59.5
			c-0.2-3.9-0.3-7.9-0.7-11.8c-0.7-7.6-7.8-11.7-13.3-16.3c-17.6-14.7-35.8-28.6-54.6-41.7c-63.6-44.3-134.7-78.3-210.3-96
			c-62.8-14.7-128.1-18.2-192.1-10.4c-55.6,6.7-110,21.1-162,42c-41.7,16.8-81.8,37.2-119.8,61.2c-22.8,14.4-44.9,29.9-65.8,47
			c-2.8,2.3-5.5,4.5-8.2,6.9C3.1,186.2,15.9,198.9,24.5,191.2z"/>
	</g>
</g>
<g id="Ebene_3">
</g>
<g>
	<g>
		<g>
			<path class="st0" d="M409.4,174.2c-0.1,0.8-0.1,1.5-0.2,2.3c5,0,10,0,15,0c1.1-27-15-52.4-39.9-62.9c-25-10.5-55.1-4.1-73.4,16.2
				c-10.3,11.4-16.1,25.8-17,41.1c2.5-2.5,5-5,7.5-7.5c0,0-0.1,0-0.1,0c1.8,0.7,3.5,1.5,5.3,2.2c-18.3-19.8-47.8-26.6-72.8-16.2
				c-25.1,10.5-41.9,36.1-40.4,63.5c0.4,7.4,2,14.7,4.9,21.5c1.5,3.7,3.2,7.2,5.4,10.5c1.2,1.8,2.5,3.5,3.8,5.2
				c0.4,0.5,0.8,1,1.1,1.4c0.5,0.7,1.7,2.1,0.8,0.8c3.4-3.4,6.8-6.8,10.3-10.3c-22.7-14.3-52.9-13.3-74.3,3.1
				c-21.6,16.5-31.2,45.5-22.8,71.5c4.7,14.7,14.4,27,27.2,35.4c-1.1-1.5-2.3-3-3.5-4.5c0,0.2,0.1,0.5,0.1,0.7
				c2.4-3.2,4.8-6.3,7.2-9.5c-27.4,0.3-51.8,17.7-61.1,43.4c-9.2,25.2-1,55.2,19.9,72c11.9,9.6,26.5,14.9,41.8,15
				c-2.2-3.8-4.3-7.5-6.5-11.3c-0.2,0.3-0.5,0.7-0.7,1.1c0.9-0.9,1.8-1.8,2.7-2.7c-23,15-34.6,42.7-28.6,69.6
				c6,26.7,28.9,46.7,55.8,50.2c14.8,1.9,30.1-1.7,42.7-9.6c-3.4-3.4-6.8-6.8-10.3-10.3c-0.5,0.7,1.7-2.1-0.2,0.1
				c-0.4,0.5-0.8,0.9-1.2,1.4c-1.3,1.6-2.5,3.2-3.6,4.8c-1.9,2.7-3.5,5.6-4.9,8.6c-2.8,6.2-4.7,12.5-5.6,19.2
				c-1.8,13.3,0.6,26.8,6.7,38.7c12.2,23.9,39.3,38,65.9,34.6c15.4-2,29.5-9.2,40-20.6c-1.8,0.7-3.5,1.5-5.3,2.2c0,0,0.1,0,0.1,0
				c-2.5-2.5-5-5-7.5-7.5c1.5,27.3,19.5,51.1,45.7,59.4c26.4,8.3,55.4-1.7,71.8-23.6c8.9-11.8,13.3-26.8,12.7-41.5c-5,0-10,0-15,0
				c0.1,0.9,0.1,1.7,0.2,2.6c0.3,4,3.2,7.5,7.5,7.5c4.1,0,7.5-3.4,7.5-7.5c0-2.8,0-5.6,0-8.3c0-9.7-15-9.7-15,0c0,3.5,0,7,0,10.5
				c0,4.1,3.5,7.5,7.5,7.5c4.3,0,7.2-3.4,7.5-7.5c0.1-0.9,0.1-1.7,0.2-2.6c-5,0-10,0-15,0c-1.1,27,15,52.4,39.9,62.9
				c25,10.5,55.2,4.1,73.4-16.2c10.3-11.4,16.1-25.8,17-41.1c-2.5,2.5-5,5-7.5,7.5c0,0,0.1,0,0.1,0c-1.8-0.7-3.5-1.5-5.3-2.2
				c18.3,19.8,47.8,26.6,72.8,16.2c25.2-10.5,41.8-36.1,40.3-63.5c-0.4-7.4-2-14.7-4.8-21.5c-1.5-3.7-3.2-7.2-5.4-10.5
				c-1.2-1.8-2.5-3.5-3.8-5.2c-0.4-0.5-0.8-1-1.2-1.4c-0.5-0.7-1.7-2.1-0.8-0.8c-3.4,3.4-6.8,6.8-10.3,10.3
				c22.7,14.3,52.9,13.3,74.3-3.1c21.6-16.5,31.2-45.5,22.8-71.5c-4.7-14.7-14.3-27-27.2-35.4c0.9,0.9,1.8,1.8,2.7,2.7
				c-0.2-0.3-0.5-0.7-0.7-1.1c-2.2,3.8-4.3,7.5-6.5,11.3c27.4-0.1,51.9-17.2,61.5-42.8c9.5-25.1,1.4-55.1-19.2-72.2
				c-11.8-9.8-26.3-15.2-41.7-15.4c2.4,3.2,4.8,6.3,7.2,9.5c0-0.2,0.1-0.5,0.2-0.7c-1.2,1.5-2.3,3-3.5,4.5
				c23-15,34.6-42.7,28.6-69.6c-6-26.7-28.9-46.7-55.8-50.2c-14.8-1.9-30.1,1.7-42.7,9.6c3.4,3.4,6.8,6.8,10.3,10.3
				c0.5-0.7-1.7,2.1,0.2-0.1c0.4-0.5,0.8-0.9,1.2-1.4c1.3-1.6,2.5-3.2,3.6-4.8c1.9-2.7,3.5-5.6,4.9-8.6c2.8-6.2,4.7-12.5,5.6-19.2
				c1.8-13.3-0.6-26.8-6.7-38.7c-12.2-23.9-39.3-38-65.9-34.6c-15.4,2-29.5,9.2-40,20.6c1.8-0.7,3.5-1.5,5.3-2.2c0,0-0.1,0-0.1,0
				c2.5,2.5,5,5,7.5,7.5c-1.6-27.9-20.6-52.5-47.8-60c-27.3-7.5-56.8,4-72.2,27.6c-4,6.2-7,13.2-8.7,20.4
				c-1.6,6.8-1.3,13.6-1.8,20.5c-0.3,4.1,3.7,7.5,7.5,7.5c4.3,0,7.2-3.4,7.5-7.5c0.1-1.9,0.1-3.7,0.1-5.5c0-2.8,0.2-6,0.6-8.1
				c1-5.6,2.6-10.6,5-15.1c5.1-9.7,12.4-17,22.3-22c19.1-9.7,43.2-5.5,58.3,9.8c8.5,8.6,13.6,20.3,14.3,32.3
				c0.2,4.3,3.3,7.1,7.5,7.5c3.9,0.4,6.5-3.4,9-5.8c2.3-2.1,4.1-3.5,6.7-5.2c4.8-3,8.9-4.9,14.3-6.3c10.3-2.7,20.8-2.1,31.2,1.7
				c20.4,7.7,33,28.8,31.8,50.1c-0.3,5.1-1.8,11.7-3.9,16.6c-2.6,6-6.5,10.3-10.1,15.4c-4.4,6.2,4.2,14.1,10.3,10.3
				c9.6-6,19.8-8.7,30.9-8c9.4,0.6,19.9,4.5,27.4,10.5c8.9,7.1,15,16.6,17.8,27.4c1.3,5.2,1.7,9.6,1.4,15.3
				c-0.3,4.8-1.3,9.7-3.2,14.9c-1.6,4.4-5.2,10.6-8.4,14.3c-2.2,2.6-4.6,4.9-7.2,7c-2.6,2.1-6.7,3.9-7.5,8c-1,4.8,2.1,9.4,7.2,9.5
				c20.6,0.3,39.9,13.4,46.8,32.8c7.3,20.4,1.2,42.6-15.5,56.5c-8.6,7.2-20.3,11.1-31.9,11.1c-5.3,0-9.8,6.5-6.5,11.3
				c1.9,2.8,4.5,4.3,7.1,6.3c1.7,1.3,4,3.5,5.7,5.3c3.6,3.8,6.5,8.2,8.9,13.3c4,8.5,5.5,19.8,3.9,28.9c-3.9,22-21.1,38.7-43,41.8
				c1.2-0.2-1.5,0.2-1.4,0.1c-0.8,0.1-1.7,0.1-2.5,0.2c-1.4,0.1-2.8,0.1-4.2,0.1c-3.4-0.1-5-0.2-8.2-0.9c-6.7-1.4-12-3.6-17.7-7.2
				c-6.1-3.8-14.7,4.1-10.3,10.3c3.3,4.7,6.8,8.5,9.3,13.8c2,4.2,3.7,9.8,4.4,15c1.3,9.6-0.6,20.8-5.4,29.8
				c-5.2,9.9-13.3,17.5-23.5,22.3c-8.9,4.2-20.2,5.6-29.6,3.8c-6.4-1.2-11.6-3.1-17-6.3c-2.7-1.6-5-3.2-7.2-5.2
				c-2.8-2.5-5.8-7.1-10-6.7c-4.2,0.4-7.2,3.1-7.5,7.5c-1.2,20.6-15.4,39-35.1,45.1c-20,6.2-42.7-1-55-17.5
				c-7.4-10-10.7-21.1-10.2-33.3c0.2-4.1-3.6-7.5-7.5-7.5c-4.3,0-7.2,3.4-7.5,7.5c-0.1,0.9-0.1,1.7-0.2,2.6c5,0,10,0,15,0
				c0-3.5,0-7,0-10.5c-5,0-10,0-15,0c0,2.8,0,5.6,0,8.3c5,0,10,0,15,0c-0.1-0.9-0.1-1.7-0.2-2.6c-0.3-4-3.2-7.5-7.5-7.5
				c-3.9,0-7.7,3.4-7.5,7.5c0.9,21.1-10.8,40.8-30.8,49.2c-19,8-42,3-56.3-12.5c-7.8-8.3-12.5-19.7-13.1-31.1
				c-0.2-4.3-3.3-7.1-7.5-7.5c-3.9-0.4-6.5,3.4-9,5.8c-2.3,2.1-4.1,3.5-6.7,5.2c-4.8,3-8.9,4.9-14.3,6.3
				c-10.3,2.7-20.8,2.1-31.2-1.7c-20.4-7.7-33-28.8-31.8-50.1c0.3-5.1,1.8-11.7,3.9-16.6c2.6-6,6.5-10.3,10.1-15.4
				c4.4-6.2-4.2-14.1-10.3-10.3c-9.6,6-19.8,8.7-30.9,8c-9.4-0.6-19.9-4.5-27.4-10.5c-8.9-7.1-15-16.6-17.8-27.4
				c-1.3-5.2-1.7-9.6-1.4-15.3c0.3-4.8,1.3-9.7,3.2-14.9c1.6-4.4,5.2-10.6,8.4-14.3c2.2-2.6,4.6-4.9,7.2-7c2.3-1.8,5.4-3.7,7.4-6.5
				c3.3-4.8-1.1-11.3-6.5-11.3c-20.6-0.1-40.1-12.9-47.2-32.2c-7.5-20.4-1.6-42.6,14.9-56.7c8.6-7.3,20.3-11.4,31.7-11.5
				c5.1-0.1,8.2-4.7,7.2-9.5c-0.8-4.1-4.4-5.5-7.3-7.8c-1.6-1.3-4-3.5-5.7-5.3c-3.6-3.8-6.5-8.2-8.9-13.3c-4-8.5-5.5-19.8-3.9-28.9
				c3.9-22,21.1-38.7,43-41.8c-1.2,0.2,1.5-0.2,1.4-0.1c0.8-0.1,1.7-0.1,2.5-0.2c1.4-0.1,2.8-0.1,4.2-0.1c3.4,0.1,5,0.3,8.2,0.9
				c6.7,1.4,12,3.6,17.7,7.2c6.1,3.8,14.7-4.1,10.3-10.3c-3.3-4.7-6.8-8.5-9.3-13.8c-2-4.2-3.7-9.8-4.4-15
				c-1.3-9.6,0.6-20.8,5.4-29.8c5.2-9.9,13.3-17.5,23.5-22.3c8.9-4.2,20.2-5.6,29.6-3.8c6.4,1.2,11.6,3.1,17,6.3
				c2.7,1.6,5,3.2,7.2,5.2c2.8,2.5,5.8,7.1,10,6.7c4.2-0.4,7.2-3.1,7.5-7.5c1.2-20.6,15.4-39,35.1-45.1c20-6.2,42.7,1,55,17.5
				c7.4,10,10.7,21.1,10.2,33.3c-0.2,4.1,3.6,7.5,7.5,7.5c4.3,0,7.2-3.4,7.5-7.5c0.1-0.8,0.1-1.5,0.2-2.3c0.3-4-3.7-7.5-7.5-7.5
				C412.6,166.7,409.8,170.1,409.4,174.2L409.4,174.2z"/>
		</g>
	</g>
	<g>
		<g>
			<g>
				<path class="st0" d="M381.6,322.6c0,2.1-0.2,4.2-0.4,6.2c0.1-0.7,0.2-1.3,0.3-2c-0.6,3.9-1.6,7.7-3.1,11.3
					c0.2-0.6,0.5-1.2,0.8-1.8c-1.1,2.6-2.5,5.2-4.1,7.5c-0.4,0.6-0.8,1.2-1.2,1.7c-0.9,1.3,1.1-1.4,0.3-0.3
					c-0.2,0.2-0.4,0.5-0.6,0.8c-0.9,1.1-1.9,2.1-2.9,3.2c-1,1-2,2-3.2,2.9c-0.2,0.2-0.5,0.4-0.8,0.6c-1,0.8,1.5-1.1,0.5-0.4
					c-0.6,0.4-1.2,0.9-1.9,1.3c-2.4,1.6-4.9,2.9-7.5,4.1c0.6-0.2,1.2-0.5,1.8-0.8c-3.8,1.6-7.7,2.6-11.7,3.2c0.7-0.1,1.3-0.2,2-0.3
					c-4,0.5-8.1,0.5-12.2-0.1c0.7,0.1,1.3,0.2,2,0.3c-3.9-0.6-7.7-1.6-11.4-3.1c0.6,0.2,1.2,0.5,1.8,0.8c-2.6-1.1-5.2-2.5-7.5-4.1
					c-0.6-0.4-1.2-0.8-1.7-1.2c-1.3-0.9,1.4,1.1,0.4,0.3c-0.2-0.2-0.5-0.4-0.8-0.6c-1.1-0.9-2.1-1.9-3.1-2.9c-1-1-2-2.1-2.9-3.2
					c-0.2-0.2-0.4-0.5-0.6-0.8c-0.8-1,1.1,1.5,0.4,0.5c-0.5-0.6-0.9-1.2-1.3-1.9c-1.6-2.4-3-4.9-4.1-7.5c0.2,0.6,0.5,1.2,0.8,1.8
					c-1.6-3.8-2.6-7.7-3.2-11.7c0.1,0.7,0.2,1.3,0.3,2c-0.2-2-0.4-3.9-0.4-5.9c0-3.9-3.4-7.7-7.5-7.5c-4,0.2-7.5,3.3-7.5,7.5
					c0,10.6,3.2,21.3,9.4,30c6.5,9,15.2,15.8,25.6,19.6c20.1,7.5,44.2,1,57.9-15.5c8-9.7,12.5-21.5,12.6-34.1c0-3.9-3.5-7.7-7.5-7.5
					C385.1,315.3,381.7,318.4,381.6,322.6L381.6,322.6z"/>
			</g>
		</g>
		<g>
			<g>
				<path class="st0" d="M525.7,324.1c0,2.1-0.2,4.2-0.4,6.2c0.1-0.7,0.2-1.3,0.3-2c-0.6,3.9-1.6,7.7-3.1,11.3
					c0.2-0.6,0.5-1.2,0.8-1.8c-1.1,2.6-2.5,5.2-4.1,7.5c-0.4,0.6-0.8,1.2-1.2,1.7c-0.9,1.3,1.1-1.4,0.3-0.3
					c-0.2,0.2-0.4,0.5-0.6,0.8c-0.9,1.1-1.9,2.1-2.9,3.2c-1,1-2,2-3.2,2.9c-0.2,0.2-0.5,0.4-0.8,0.6c-1,0.8,1.5-1.1,0.5-0.4
					c-0.6,0.4-1.2,0.9-1.9,1.3c-2.4,1.6-4.9,2.9-7.5,4.1c0.6-0.2,1.2-0.5,1.8-0.8c-3.8,1.6-7.7,2.6-11.7,3.2c0.7-0.1,1.3-0.2,2-0.3
					c-4,0.5-8.1,0.5-12.2-0.1c0.7,0.1,1.3,0.2,2,0.3c-3.9-0.6-7.7-1.6-11.3-3.1c0.6,0.2,1.2,0.5,1.8,0.8c-2.6-1.1-5.2-2.5-7.5-4.1
					c-0.6-0.4-1.2-0.8-1.7-1.2c-1.3-0.9,1.4,1.1,0.3,0.3c-0.2-0.2-0.5-0.4-0.8-0.6c-1.1-0.9-2.1-1.9-3.2-2.9c-1-1-2-2.1-2.9-3.2
					c-0.2-0.2-0.4-0.5-0.6-0.8c-0.8-1,1.1,1.5,0.4,0.5c-0.5-0.6-0.9-1.2-1.3-1.9c-1.6-2.4-3-4.9-4.1-7.5c0.2,0.6,0.5,1.2,0.8,1.8
					c-1.6-3.8-2.6-7.7-3.2-11.7c0.1,0.7,0.2,1.3,0.3,2c-0.2-2-0.4-3.9-0.4-5.9c0-3.9-3.4-7.7-7.5-7.5c-4,0.2-7.5,3.3-7.5,7.5
					c0,10.6,3.2,21.3,9.4,30c6.5,9,15.2,15.8,25.6,19.6c20.1,7.5,44.2,1,57.9-15.5c8-9.7,12.5-21.5,12.6-34.1c0-3.9-3.5-7.7-7.5-7.5
					C529.1,316.8,525.7,319.9,525.7,324.1L525.7,324.1z"/>
			</g>
		</g>
		<g>
			<g>
				<path class="st0" d="M441.2,464.5c0,1.4-0.1,2.8-0.3,4.2c0.1-0.7,0.2-1.3,0.3-2c-0.4,2.8-1.1,5.5-2.2,8.1
					c0.2-0.6,0.5-1.2,0.8-1.8c-0.8,1.8-1.7,3.6-2.8,5.2c-0.3,0.4-0.6,0.8-0.8,1.2c-0.8,1.1,0.5-0.5,0.5-0.6c0,0.1-0.3,0.4-0.4,0.5
					c-0.7,0.8-1.3,1.6-2.1,2.3c-0.7,0.7-1.4,1.3-2.2,2c-0.2,0.1-0.3,0.3-0.5,0.4c-0.7,0.6,1.6-1.2,0.6-0.5c-0.4,0.3-0.8,0.6-1.2,0.8
					c-1.7,1.1-3.5,2.1-5.3,2.9c0.6-0.2,1.2-0.5,1.8-0.8c-2.6,1.1-5.3,1.8-8.1,2.2c0.7-0.1,1.3-0.2,2-0.3c-2.8,0.3-5.5,0.3-8.3,0
					c0.7,0.1,1.3,0.2,2,0.3c-2.8-0.4-5.5-1.1-8.1-2.2c0.6,0.2,1.2,0.5,1.8,0.8c-1.8-0.8-3.6-1.7-5.2-2.8c-0.4-0.3-0.8-0.6-1.2-0.8
					c-1.1-0.8,0.5,0.5,0.6,0.5c-0.1,0-0.4-0.3-0.5-0.4c-0.8-0.7-1.6-1.3-2.3-2.1c-0.7-0.7-1.3-1.4-2-2.2c-0.1-0.2-0.3-0.3-0.4-0.5
					c-0.6-0.7,1.2,1.6,0.5,0.6c-0.3-0.4-0.6-0.8-0.8-1.2c-1.1-1.7-2.1-3.5-2.9-5.3c0.2,0.6,0.5,1.2,0.8,1.8
					c-1.1-2.6-1.8-5.3-2.2-8.1c0.1,0.7,0.2,1.3,0.3,2c-0.2-1.4-0.3-2.8-0.3-4.2c0-3.9-3.4-7.7-7.5-7.5c-4,0.2-7.5,3.3-7.5,7.5
					c0,7.8,2.3,15.8,6.9,22.2c4.9,6.8,11.3,11.8,19.2,14.7c14.8,5.5,32.7,0.7,42.7-11.5c5.9-7.2,9.3-16,9.4-25.4
					c0-3.9-3.5-7.7-7.5-7.5C444.6,457.2,441.2,460.3,441.2,464.5L441.2,464.5z"/>
			</g>
		</g>
	</g>
	<g>
		<g>
			<path class="st0" d="M540.3,599.5c1,2.6,1.8,5.2,2.1,8c-0.1-0.7-0.2-1.3-0.3-2c0.3,2.8,0.3,5.5,0,8.3c0.1-0.7,0.2-1.3,0.3-2
				c-0.4,2.8-1.2,5.6-2.3,8.2c0.2-0.6,0.5-1.2,0.8-1.8c-0.8,1.8-1.7,3.4-2.7,5.1c-0.3,0.4-0.6,0.8-0.8,1.2c-0.6,0.8,0.6-0.7,0.6-0.7
				c0,0.2-0.3,0.4-0.4,0.5c-0.6,0.8-1.3,1.5-2,2.2c-0.7,0.7-1.4,1.3-2.1,1.9c-0.5,0.4-2,1.4,0.1,0c-0.4,0.3-0.7,0.5-1.1,0.8
				c-1.7,1.2-3.5,2.2-5.5,3c0.6-0.2,1.2-0.5,1.8-0.8c-2.7,1.1-5.4,1.9-8.3,2.3c0.7-0.1,1.3-0.2,2-0.3c-2.8,0.3-5.5,0.3-8.3,0
				c0.7,0.1,1.3,0.2,2,0.3c-2.8-0.4-5.6-1.2-8.2-2.3c0.6,0.2,1.2,0.5,1.8,0.8c-1.8-0.8-3.5-1.7-5-2.7c-0.4-0.3-0.8-0.6-1.2-0.8
				c-0.8-0.6,0.7,0.6,0.7,0.6c-0.2,0-0.4-0.3-0.5-0.4c-0.8-0.6-1.5-1.3-2.2-2c-0.7-0.7-1.3-1.4-1.9-2.1c-0.4-0.5-1.4-2,0,0.1
				c-0.3-0.4-0.5-0.7-0.8-1.1c-1.2-1.7-2.2-3.6-3-5.5c0.2,0.6,0.5,1.2,0.8,1.8c0-0.1-0.1-0.2-0.1-0.3c-0.8-1.9-1.6-3.4-3.5-4.5
				c-1.6-0.9-4-1.3-5.8-0.8c-1.8,0.6-3.6,1.7-4.5,3.4c-0.9,1.7-1.5,4-0.8,5.8c1.8,4.3,3.9,7.9,6.9,11.5c2.5,2.9,5.5,5.4,8.7,7.5
				c6.4,4.1,14.3,6.3,21.9,6c8.7-0.3,16.7-3.4,23.5-8.7c6.1-4.7,10.5-11.4,12.8-18.7c2.7-8.2,2.4-17.7-0.9-25.7
				c-0.8-1.9-1.6-3.4-3.5-4.5c-1.6-0.9-4-1.3-5.8-0.8c-1.8,0.6-3.6,1.7-4.5,3.4C540.2,595.4,539.5,597.7,540.3,599.5L540.3,599.5z"
				/>
		</g>
	</g>
	<g>
		<g>
			<path class="st0" d="M291.9,217.3c-0.1-0.3-0.3-0.6-0.4-1c0.2,0.6,0.5,1.2,0.8,1.8c-1.1-2.7-1.9-5.4-2.2-8.2
				c0.1,0.7,0.2,1.3,0.3,2c-0.4-2.8-0.3-5.5,0-8.3c-0.1,0.7-0.2,1.3-0.3,2c0.4-2.8,1.1-5.6,2.3-8.2c-0.2,0.6-0.5,1.2-0.8,1.8
				c0.8-1.8,1.7-3.5,2.7-5.1c0.3-0.4,0.6-0.8,0.9-1.2c0.1-0.1,0.2-0.4,0.4-0.5c0,0-1.2,1.5-0.6,0.7s1.3-1.5,2-2.2
				c0.7-0.7,1.4-1.3,2.1-1.9c0.2-0.2,0.4-0.3,0.5-0.4c0.6-0.5-1.6,1.2-0.6,0.4c0.4-0.3,0.7-0.5,1.1-0.8c1.7-1.2,3.6-2.2,5.5-3
				c-0.6,0.2-1.2,0.5-1.8,0.8c2.6-1.1,5.4-1.9,8.2-2.2c-0.7,0.1-1.3,0.2-2,0.3c2.8-0.3,5.5-0.3,8.3,0c-0.7-0.1-1.3-0.2-2-0.3
				c2.8,0.4,5.6,1.2,8.2,2.3c-0.6-0.2-1.2-0.5-1.8-0.8c1.7,0.7,3.3,1.6,4.8,2.5c0.4,0.3,0.8,0.6,1.2,0.8c0.2,0.1,0.4,0.3,0.5,0.4
				c0.8,0.6-0.7-0.6-0.7-0.6c0.2,0,0.8,0.7,1,0.8c0.4,0.3,0.8,0.7,1.1,1c0.6,0.6,1.3,1.3,1.9,1.9c0.3,0.3,0.6,0.7,0.9,1
				c0.6,0.7-1.1-1.5-0.4-0.6c0.1,0.2,0.3,0.4,0.4,0.6c1.1,1.6,2.1,3.3,3,5.1c0.8,1.6,2.8,3,4.5,3.4c1.8,0.5,4.2,0.3,5.8-0.8
				c3.7-2.4,4.5-6.4,2.7-10.3c-6.6-14.1-22.4-23.3-37.9-21.9c-8.6,0.8-16.5,4-23.1,9.7c-5.8,4.9-10,12-12,19.3
				c-1.1,4.1-1.6,8.6-1.2,12.8c0.5,5.1,1.7,9.7,3.9,14.3c0.7,1.6,2.8,3,4.5,3.4c1.8,0.5,4.2,0.3,5.8-0.8c1.6-1,3-2.6,3.5-4.5
				C293.2,221,292.8,219.2,291.9,217.3L291.9,217.3z"/>
		</g>
	</g>
	<g>
		<g>
			<path class="st0" d="M197.2,463.1c-0.2,0.2-1.5,1.2-0.4,0.3c1.1-0.9,0,0-0.2,0.2c-0.6,0.4-1.3,0.9-1.9,1.2c-1.3,0.8-2.6,1.4-4,2
				c0.6-0.2,1.2-0.5,1.8-0.8c-2.6,1.1-5.4,1.8-8.2,2.2c0.7-0.1,1.3-0.2,2-0.3c-2.8,0.3-5.6,0.3-8.4,0c0.7,0.1,1.3,0.2,2,0.3
				c-2.8-0.4-5.5-1.1-8.1-2.2c0.6,0.2,1.2,0.5,1.8,0.8c-1.8-0.8-3.5-1.7-5.1-2.7c-0.4-0.2-0.8-0.5-1.1-0.8c-0.2-0.1-0.4-0.3-0.6-0.4
				c1.9,1.3,1,0.8,0.6,0.4c-0.8-0.6-1.5-1.3-2.2-2c-0.7-0.7-1.3-1.4-1.9-2.1c-0.2-0.2-0.4-0.5-0.6-0.7c-0.6-0.7,1,1.4,0.5,0.7
				c-0.3-0.4-0.5-0.8-0.8-1.2c-1.1-1.7-2.1-3.5-2.9-5.3c0.2,0.6,0.5,1.2,0.8,1.8c-1.1-2.6-1.8-5.3-2.2-8.2c0.1,0.7,0.2,1.3,0.3,2
				c-0.4-2.8-0.3-5.6,0-8.3c-0.1,0.7-0.2,1.3-0.3,2c0.4-2.8,1.1-5.5,2.2-8.1c-0.2,0.6-0.5,1.2-0.8,1.8c0.9-2.2,2.1-4.3,3.5-6.2
				c0.2-0.2,0.9-1.1,0-0.1c-0.8,1.1-0.1,0.2,0.1-0.1c0.4-0.4,0.8-0.9,1.2-1.3c0.9-1,1.8-1.8,2.8-2.7c3-2.6,2.8-8,0-10.6
				c-3.2-2.9-7.4-2.7-10.6,0c-11.9,10.1-16.7,27.8-11.2,42.5c3,8,8.2,14.7,15.2,19.6c6.3,4.3,14.2,6.6,21.9,6.5
				c9.4-0.1,18.2-3.6,25.4-9.6c1.4-1.2,2.2-3.6,2.2-5.3c0-1.8-0.8-4-2.2-5.3c-1.4-1.3-3.3-2.3-5.3-2.2
				C200.4,461,198.8,461.8,197.2,463.1L197.2,463.1z"/>
		</g>
	</g>
	<g>
		<g>
			<path class="st0" d="M636,348.8c0.2-0.2,1.5-1.2,0.4-0.3c-1.1,0.9,0,0,0.2-0.2c0.6-0.4,1.3-0.9,1.9-1.2c1.3-0.8,2.6-1.4,4-2
				c-0.6,0.2-1.2,0.5-1.8,0.8c2.6-1.1,5.3-1.8,8.2-2.2c-0.7,0.1-1.3,0.2-2,0.3c2.8-0.3,5.6-0.3,8.3,0c-0.7-0.1-1.3-0.2-2-0.3
				c2.8,0.4,5.5,1.1,8.1,2.2c-0.6-0.2-1.2-0.5-1.8-0.8c1.8,0.8,3.5,1.7,5.1,2.7c0.4,0.2,0.8,0.5,1.1,0.8c0.2,0.1,0.4,0.3,0.6,0.4
				c-1.9-1.3-1-0.8-0.6-0.4c0.8,0.6,1.5,1.3,2.2,2c0.7,0.7,1.3,1.4,1.9,2.1c0.2,0.2,0.4,0.5,0.6,0.7c0.6,0.7-1-1.4-0.5-0.7
				c0.3,0.4,0.5,0.8,0.8,1.2c1.1,1.7,2.1,3.5,2.9,5.3c-0.2-0.6-0.5-1.2-0.8-1.8c1.1,2.6,1.8,5.3,2.2,8.2c-0.1-0.7-0.2-1.3-0.3-2
				c0.3,2.8,0.3,5.6,0,8.3c0.1-0.7,0.2-1.3,0.3-2c-0.4,2.8-1.1,5.5-2.2,8.1c0.2-0.6,0.5-1.2,0.8-1.8c-0.9,2.2-2.1,4.3-3.5,6.2
				c-0.2,0.2-0.9,1.1,0,0.1c0.8-1.1,0.1-0.2-0.1,0.1c-0.4,0.4-0.8,0.9-1.2,1.3c-0.9,1-1.8,1.8-2.8,2.7c-3,2.6-2.8,8,0,10.6
				c3.2,2.9,7.4,2.7,10.6,0c11.9-10.1,16.7-27.8,11.2-42.5c-3-8-8.2-14.7-15.2-19.6c-6.3-4.3-14.2-6.6-21.9-6.5
				c-9.4,0.1-18.2,3.6-25.4,9.6c-1.4,1.2-2.2,3.6-2.2,5.3c0,1.8,0.8,4,2.2,5.3c1.4,1.3,3.3,2.3,5.3,2.2
				C632.8,350.9,634.4,350.2,636,348.8L636,348.8z"/>
		</g>
	</g>
</g>
</svg>
