<svg width="187" height="187" viewBox="0 0 187 187" fill="none" xmlns="http://www.w3.org/2000/svg">
<g filter="url(#filter0_d_20_1730)">
<circle cx="91" cy="91" r="91" fill="#FF9494"/>
</g>
<path d="M15 140L100.5 0.5C127.7 0.5 149.833 19.5 157.5 29L71 179.5C47.4 177.9 23.8333 152.5 15 140Z" fill="#FFB6B6" fill-opacity="0.5"/>
<path d="M42.122 104.576C39.21 104.576 36.666 104.16 34.49 103.328C32.346 102.464 30.362 101.104 28.538 99.248L34.538 93.248C35.786 94.432 37.098 95.344 38.474 95.984C39.85 96.592 41.322 96.896 42.89 96.896C44.202 96.896 45.194 96.704 45.866 96.32C46.538 95.904 46.874 95.344 46.874 94.64C46.874 93.936 46.586 93.36 46.01 92.912C45.434 92.432 44.666 92.016 43.706 91.664C42.778 91.28 41.738 90.896 40.586 90.512C39.466 90.128 38.346 89.664 37.226 89.12C36.106 88.576 35.066 87.92 34.106 87.152C33.178 86.352 32.426 85.376 31.85 84.224C31.274 83.04 30.986 81.6 30.986 79.904C30.986 77.696 31.514 75.792 32.57 74.192C33.626 72.592 35.114 71.376 37.034 70.544C38.954 69.68 41.21 69.248 43.802 69.248C46.362 69.248 48.73 69.664 50.906 70.496C53.114 71.296 54.938 72.448 56.378 73.952L50.33 79.952C49.274 78.928 48.218 78.176 47.162 77.696C46.106 77.184 44.954 76.928 43.706 76.928C42.714 76.928 41.914 77.088 41.306 77.408C40.73 77.728 40.442 78.208 40.442 78.848C40.442 79.52 40.73 80.08 41.306 80.528C41.882 80.944 42.634 81.328 43.562 81.68C44.522 82.032 45.562 82.4 46.682 82.784C47.834 83.168 48.97 83.632 50.09 84.176C51.21 84.688 52.234 85.36 53.162 86.192C54.122 86.992 54.89 88 55.466 89.216C56.042 90.432 56.33 91.904 56.33 93.632C56.33 97.12 55.082 99.824 52.586 101.744C50.122 103.632 46.634 104.576 42.122 104.576ZM64.94 104.576C63.436 104.576 62.188 104.064 61.196 103.04C60.204 102.016 59.708 100.768 59.708 99.296C59.708 97.792 60.204 96.528 61.196 95.504C62.188 94.48 63.436 93.968 64.94 93.968C66.444 93.968 67.676 94.48 68.636 95.504C69.628 96.528 70.124 97.792 70.124 99.296C70.124 100.768 69.628 102.016 68.636 103.04C67.676 104.064 66.444 104.576 64.94 104.576ZM90.5874 104.672C87.8994 104.672 85.4194 104.224 83.1474 103.328C80.9074 102.432 78.9394 101.184 77.2434 99.584C75.5794 97.984 74.2834 96.096 73.3554 93.92C72.4274 91.744 71.9634 89.392 71.9634 86.864C71.9634 84.304 72.4114 81.952 73.3074 79.808C74.2354 77.664 75.5314 75.792 77.1954 74.192C78.8594 72.592 80.8114 71.36 83.0514 70.496C85.3234 69.6 87.8034 69.152 90.4914 69.152C93.1794 69.152 95.6434 69.6 97.8834 70.496C100.155 71.36 102.123 72.592 103.787 74.192C105.451 75.792 106.731 77.68 107.627 79.856C108.555 82 109.019 84.352 109.019 86.912C109.019 89.44 108.555 91.792 107.627 93.968C106.731 96.112 105.451 98 103.787 99.632C102.123 101.232 100.171 102.48 97.9314 103.376C95.6914 104.24 93.2434 104.672 90.5874 104.672ZM90.4914 96.224C92.2834 96.224 93.8354 95.84 95.1474 95.072C96.4594 94.304 97.4674 93.216 98.1714 91.808C98.8754 90.4 99.2274 88.752 99.2274 86.864C99.2274 85.456 99.0194 84.192 98.6034 83.072C98.2194 81.92 97.6434 80.944 96.8754 80.144C96.1074 79.312 95.1794 78.688 94.0914 78.272C93.0354 77.824 91.8354 77.6 90.4914 77.6C88.6994 77.6 87.1474 77.984 85.8354 78.752C84.5234 79.488 83.5154 80.56 82.8114 81.968C82.1074 83.344 81.7554 84.976 81.7554 86.864C81.7554 88.304 81.9474 89.6 82.3314 90.752C82.7474 91.904 83.3394 92.896 84.1074 93.728C84.8754 94.528 85.7874 95.152 86.8434 95.6C87.9314 96.016 89.1474 96.224 90.4914 96.224ZM116.128 104.576C114.624 104.576 113.376 104.064 112.384 103.04C111.392 102.016 110.896 100.768 110.896 99.296C110.896 97.792 111.392 96.528 112.384 95.504C113.376 94.48 114.624 93.968 116.128 93.968C117.632 93.968 118.864 94.48 119.824 95.504C120.816 96.528 121.312 97.792 121.312 99.296C121.312 100.768 120.816 102.016 119.824 103.04C118.864 104.064 117.632 104.576 116.128 104.576ZM137.372 104.576C134.46 104.576 131.916 104.16 129.74 103.328C127.596 102.464 125.612 101.104 123.788 99.248L129.788 93.248C131.036 94.432 132.348 95.344 133.724 95.984C135.1 96.592 136.572 96.896 138.14 96.896C139.452 96.896 140.444 96.704 141.116 96.32C141.788 95.904 142.124 95.344 142.124 94.64C142.124 93.936 141.836 93.36 141.26 92.912C140.684 92.432 139.916 92.016 138.956 91.664C138.028 91.28 136.988 90.896 135.836 90.512C134.716 90.128 133.596 89.664 132.476 89.12C131.356 88.576 130.316 87.92 129.356 87.152C128.428 86.352 127.676 85.376 127.1 84.224C126.524 83.04 126.236 81.6 126.236 79.904C126.236 77.696 126.764 75.792 127.82 74.192C128.876 72.592 130.364 71.376 132.284 70.544C134.204 69.68 136.46 69.248 139.052 69.248C141.612 69.248 143.98 69.664 146.156 70.496C148.364 71.296 150.188 72.448 151.628 73.952L145.58 79.952C144.524 78.928 143.468 78.176 142.412 77.696C141.356 77.184 140.204 76.928 138.956 76.928C137.964 76.928 137.164 77.088 136.556 77.408C135.98 77.728 135.692 78.208 135.692 78.848C135.692 79.52 135.98 80.08 136.556 80.528C137.132 80.944 137.884 81.328 138.812 81.68C139.772 82.032 140.812 82.4 141.932 82.784C143.084 83.168 144.22 83.632 145.34 84.176C146.46 84.688 147.484 85.36 148.412 86.192C149.372 86.992 150.14 88 150.716 89.216C151.292 90.432 151.58 91.904 151.58 93.632C151.58 97.12 150.332 99.824 147.836 101.744C145.372 103.632 141.884 104.576 137.372 104.576Z" fill="white"/>
<defs>
<filter id="filter0_d_20_1730" x="0" y="0" width="187" height="187" filterUnits="userSpaceOnUse" color-interpolation-filters="sRGB">
<feFlood flood-opacity="0" result="BackgroundImageFix"/>
<feColorMatrix in="SourceAlpha" type="matrix" values="0 0 0 0 0 0 0 0 0 0 0 0 0 0 0 0 0 0 127 0" result="hardAlpha"/>
<feOffset dx="5" dy="5"/>
<feComposite in2="hardAlpha" operator="out"/>
<feColorMatrix type="matrix" values="0 0 0 0 0.895833 0 0 0 0 0.376997 0 0 0 0 0.376997 0 0 0 1 0"/>
<feBlend mode="normal" in2="BackgroundImageFix" result="effect1_dropShadow_20_1730"/>
<feBlend mode="normal" in="SourceGraphic" in2="effect1_dropShadow_20_1730" result="shape"/>
</filter>
</defs>
</svg>
