<svg width="29" height="29" viewBox="0 0 29 29" fill="none" xmlns="http://www.w3.org/2000/svg">
<circle cx="14.5" cy="14.5" r="14.5" fill="#FFC42E"/>
<path d="M22.6377 8.30139L23.2969 7.60706C23.6309 7.2555 23.6572 6.7721 23.3232 6.43811L23.0947 6.20081C22.7959 5.90198 22.2949 5.94593 21.9697 6.27112L21.2842 6.93909L22.6377 8.30139ZM12.2314 17.653L14.0332 16.8971L21.9961 8.93421L20.6426 7.58948L12.6797 15.5612L11.8887 17.3014C11.8008 17.5035 12.0293 17.7321 12.2314 17.653ZM8.8916 23.5504H19.1309C20.8184 23.5504 21.8115 22.566 21.8115 20.6852V11.4039L20.0537 13.153V20.527C20.0537 21.3707 19.6055 21.7926 19.0166 21.7926H9.00586C8.19727 21.7926 7.75781 21.3707 7.75781 20.527V10.7623C7.75781 9.91858 8.19727 9.49671 9.00586 9.49671H16.4678L18.2168 7.73889H8.8916C6.99316 7.73889 6 8.72327 6 10.6041V20.6852C6 22.566 6.99316 23.5504 8.8916 23.5504Z" fill="white"/>
</svg>
