<svg width="30" height="30" viewBox="0 0 30 30" fill="none" xmlns="http://www.w3.org/2000/svg">
<path d="M3.26523 24.898H26.7348C28.8802 24.898 30 23.5569 30 20.8601V4.0379C30 1.34111 28.8802 0 26.7348 0H3.26523C1.11984 0 0 1.34111 0 4.0379V20.8601C0 23.5569 1.11984 24.898 3.26523 24.898ZM3.41847 22.07C2.64047 22.07 2.28684 21.6764 2.28684 20.6851V4.21283C2.28684 3.22157 2.64047 2.82799 3.41847 2.82799H26.5815C27.3595 2.82799 27.7132 3.22157 27.7132 4.21283V20.6851C27.7132 21.6764 27.3595 22.07 26.5815 22.07H3.41847ZM12.1768 19.0816C12.4715 19.0816 12.7191 18.965 13.002 18.7755L19.8507 13.7901C20.3458 13.4257 20.6051 12.9883 20.6051 12.4344C20.6051 11.895 20.3576 11.4723 19.8507 11.1079L13.002 6.12245C12.7191 5.93294 12.4715 5.81633 12.1768 5.81633C11.5874 5.81633 11.1041 6.35568 11.1041 7.34694V17.5364C11.1041 18.5277 11.5992 19.0816 12.1768 19.0816ZM8.97053 30H21.0295C21.6189 30 22.1022 29.4023 22.1022 28.6735C22.1022 27.9446 21.6189 27.3324 21.0295 27.3324H8.97053C8.38114 27.3324 7.89784 27.9446 7.89784 28.6735C7.89784 29.4023 8.38114 30 8.97053 30Z" fill="#393A3A"/>
</svg>
