<svg width="30" height="30" viewBox="0 0 30 30" fill="none" xmlns="http://www.w3.org/2000/svg">
<path d="M15 30C23.2043 30 30 23.2188 30 15C30 6.79574 23.2043 0 14.9855 0C6.78122 0 0 6.79574 0 15C0 23.2188 6.79574 30 15 30ZM15 27.0523C8.32043 27.0523 2.96225 21.6796 2.96225 15C2.96225 8.32043 8.30591 2.96225 14.9855 2.96225C21.6651 2.96225 27.0378 8.32043 27.0523 15C27.0523 21.6796 21.6796 27.0523 15 27.0523ZM15 15.3921C15.6389 15.3921 16.0891 14.9274 16.0891 14.274V8.1607C16.0891 7.50726 15.6389 7.04259 15 7.04259C14.3611 7.04259 13.9109 7.50726 13.9109 8.1607V14.274C13.9109 14.9274 14.3611 15.3921 15 15.3921ZM15 22.5073C19.1239 22.5073 22.5363 19.0949 22.5363 14.9855C22.5363 12.9526 21.6505 10.9487 20.1694 9.5547C19.0803 8.5092 17.5992 10.0194 18.6738 11.0939C19.7483 12.1104 20.3437 13.4753 20.3582 14.9855C20.3582 17.9622 17.9768 20.3437 15 20.3437C12.0232 20.3437 9.65634 17.9622 9.65634 14.9855C9.65634 13.4753 10.2517 12.1104 11.3262 11.0794C12.4153 10.0048 10.9197 8.5092 9.84511 9.5547C8.34947 10.9342 7.47822 12.938 7.47822 14.9855C7.47822 19.0949 10.8761 22.5073 15 22.5073Z" fill="#373D4D"/>
</svg>
