<svg width="66" height="66" viewBox="0 0 66 66" fill="none" xmlns="http://www.w3.org/2000/svg">
<circle cx="33" cy="33" r="31.5" fill="#FF9494" stroke="white" stroke-width="3"/>
<path d="M19.3888 38.6743C18.8234 38.6743 18.2901 38.5943 17.7888 38.4343C17.2874 38.2743 16.8288 38.0343 16.4128 37.7143C15.9968 37.3943 15.6288 36.9996 15.3088 36.5303L16.1728 35.5703C16.6741 36.2849 17.1861 36.7863 17.7088 37.0743C18.2421 37.3623 18.8394 37.5063 19.5008 37.5063C19.9808 37.5063 20.4181 37.4263 20.8128 37.2663C21.2074 37.1063 21.5168 36.8823 21.7408 36.5943C21.9648 36.3063 22.0768 35.9756 22.0768 35.6023C22.0768 35.3569 22.0341 35.1383 21.9488 34.9463C21.8741 34.7543 21.7568 34.5836 21.5968 34.4343C21.4368 34.2849 21.2394 34.1516 21.0048 34.0343C20.7701 33.9169 20.4981 33.8103 20.1888 33.7143C19.8901 33.6183 19.5541 33.5223 19.1808 33.4263C18.6368 33.2983 18.1568 33.1489 17.7408 32.9783C17.3354 32.7969 16.9888 32.5783 16.7008 32.3223C16.4234 32.0663 16.2101 31.7729 16.0608 31.4423C15.9221 31.1009 15.8528 30.7009 15.8528 30.2423C15.8528 29.8049 15.9434 29.3996 16.1248 29.0263C16.3168 28.6529 16.5781 28.3329 16.9088 28.0663C17.2394 27.7889 17.6288 27.5756 18.0768 27.4263C18.5248 27.2769 19.0048 27.2023 19.5168 27.2023C20.0928 27.2023 20.6048 27.2823 21.0528 27.4423C21.5114 27.5916 21.9168 27.8156 22.2688 28.1143C22.6208 28.4129 22.9248 28.7703 23.1808 29.1863L22.3008 30.0503C22.0768 29.6983 21.8208 29.3943 21.5328 29.1383C21.2554 28.8823 20.9461 28.6903 20.6048 28.5623C20.2741 28.4236 19.9061 28.3543 19.5008 28.3543C19.0314 28.3543 18.6154 28.4343 18.2528 28.5943C17.9008 28.7543 17.6234 28.9783 17.4208 29.2663C17.2181 29.5436 17.1168 29.8636 17.1168 30.2263C17.1168 30.4929 17.1648 30.7329 17.2608 30.9463C17.3568 31.1489 17.5061 31.3303 17.7088 31.4903C17.9221 31.6396 18.1941 31.7783 18.5248 31.9063C18.8661 32.0236 19.2714 32.1356 19.7408 32.2423C20.2954 32.3703 20.7914 32.5249 21.2288 32.7063C21.6768 32.8876 22.0554 33.1063 22.3648 33.3623C22.6848 33.6076 22.9248 33.8956 23.0848 34.2263C23.2554 34.5569 23.3408 34.9356 23.3408 35.3623C23.3408 36.0236 23.1754 36.6049 22.8448 37.1063C22.5141 37.5969 22.0501 37.9809 21.4528 38.2583C20.8661 38.5356 20.1781 38.6743 19.3888 38.6743ZM25.6249 38.6743C25.3369 38.6743 25.1129 38.5889 24.9529 38.4183C24.8035 38.2476 24.7289 38.0023 24.7289 37.6823C24.7289 37.3943 24.8089 37.1596 24.9689 36.9783C25.1395 36.7863 25.3582 36.6903 25.6249 36.6903C25.9129 36.6903 26.1315 36.7809 26.2809 36.9623C26.4409 37.1329 26.5209 37.3729 26.5209 37.6823C26.5209 37.9809 26.4355 38.2209 26.2649 38.4023C26.1049 38.5836 25.8915 38.6743 25.6249 38.6743ZM32.9908 38.6743C32.2014 38.6743 31.4708 38.5356 30.7988 38.2583C30.1374 37.9703 29.5561 37.5703 29.0548 37.0583C28.5641 36.5463 28.1801 35.9436 27.9028 35.2503C27.6361 34.5463 27.5028 33.7783 27.5028 32.9463C27.5028 32.1143 27.6361 31.3516 27.9028 30.6583C28.1801 29.9543 28.5641 29.3463 29.0548 28.8343C29.5561 28.3116 30.1374 27.9116 30.7988 27.6343C31.4708 27.3463 32.2014 27.2023 32.9908 27.2023C33.7908 27.2023 34.5214 27.3463 35.1828 27.6343C35.8548 27.9116 36.4361 28.3116 36.9268 28.8343C37.4281 29.3463 37.8121 29.9543 38.0788 30.6583C38.3561 31.3516 38.4948 32.1143 38.4948 32.9463C38.4948 33.7676 38.3561 34.5303 38.0788 35.2343C37.8121 35.9276 37.4281 36.5356 36.9268 37.0583C36.4361 37.5703 35.8548 37.9703 35.1828 38.2583C34.5214 38.5356 33.7908 38.6743 32.9908 38.6743ZM32.9908 37.4423C33.5988 37.4423 34.1588 37.3356 34.6708 37.1223C35.1934 36.8983 35.6414 36.5836 36.0148 36.1783C36.3881 35.7729 36.6761 35.2983 36.8788 34.7543C37.0921 34.1996 37.1988 33.5969 37.1988 32.9463C37.1988 32.2849 37.0921 31.6823 36.8788 31.1383C36.6761 30.5836 36.3881 30.1036 36.0148 29.6983C35.6414 29.2929 35.1934 28.9783 34.6708 28.7543C34.1588 28.5303 33.5988 28.4183 32.9908 28.4183C32.3828 28.4183 31.8174 28.5303 31.2948 28.7543C30.7828 28.9783 30.3401 29.2929 29.9668 29.6983C29.5934 30.1036 29.3054 30.5836 29.1028 31.1383C28.9001 31.6823 28.7988 32.2849 28.7988 32.9463C28.7988 33.5969 28.9001 34.1996 29.1028 34.7543C29.3054 35.2983 29.5934 35.7729 29.9668 36.1783C30.3401 36.5836 30.7828 36.8983 31.2948 37.1223C31.8174 37.3356 32.3828 37.4423 32.9908 37.4423ZM40.3825 38.6743C40.0945 38.6743 39.8705 38.5889 39.7105 38.4183C39.5612 38.2476 39.4865 38.0023 39.4865 37.6823C39.4865 37.3943 39.5665 37.1596 39.7265 36.9783C39.8972 36.7863 40.1158 36.6903 40.3825 36.6903C40.6705 36.6903 40.8892 36.7809 41.0385 36.9623C41.1985 37.1329 41.2785 37.3729 41.2785 37.6823C41.2785 37.9809 41.1932 38.2209 41.0225 38.4023C40.8625 38.5836 40.6492 38.6743 40.3825 38.6743ZM46.7009 38.6743C46.1355 38.6743 45.6022 38.5943 45.1009 38.4343C44.5995 38.2743 44.1409 38.0343 43.7249 37.7143C43.3089 37.3943 42.9409 36.9996 42.6209 36.5303L43.4849 35.5703C43.9862 36.2849 44.4982 36.7863 45.0209 37.0743C45.5542 37.3623 46.1515 37.5063 46.8129 37.5063C47.2929 37.5063 47.7302 37.4263 48.1249 37.2663C48.5195 37.1063 48.8289 36.8823 49.0529 36.5943C49.2769 36.3063 49.3889 35.9756 49.3889 35.6023C49.3889 35.3569 49.3462 35.1383 49.2609 34.9463C49.1862 34.7543 49.0689 34.5836 48.9089 34.4343C48.7489 34.2849 48.5515 34.1516 48.3169 34.0343C48.0822 33.9169 47.8102 33.8103 47.5009 33.7143C47.2022 33.6183 46.8662 33.5223 46.4929 33.4263C45.9489 33.2983 45.4689 33.1489 45.0529 32.9783C44.6475 32.7969 44.3009 32.5783 44.0129 32.3223C43.7355 32.0663 43.5222 31.7729 43.3729 31.4423C43.2342 31.1009 43.1649 30.7009 43.1649 30.2423C43.1649 29.8049 43.2555 29.3996 43.4369 29.0263C43.6289 28.6529 43.8902 28.3329 44.2209 28.0663C44.5515 27.7889 44.9409 27.5756 45.3889 27.4263C45.8369 27.2769 46.3169 27.2023 46.8289 27.2023C47.4049 27.2023 47.9169 27.2823 48.3649 27.4423C48.8235 27.5916 49.2289 27.8156 49.5809 28.1143C49.9329 28.4129 50.2369 28.7703 50.4929 29.1863L49.6129 30.0503C49.3889 29.6983 49.1329 29.3943 48.8449 29.1383C48.5675 28.8823 48.2582 28.6903 47.9169 28.5623C47.5862 28.4236 47.2182 28.3543 46.8129 28.3543C46.3435 28.3543 45.9275 28.4343 45.5649 28.5943C45.2129 28.7543 44.9355 28.9783 44.7329 29.2663C44.5302 29.5436 44.4289 29.8636 44.4289 30.2263C44.4289 30.4929 44.4769 30.7329 44.5729 30.9463C44.6689 31.1489 44.8182 31.3303 45.0209 31.4903C45.2342 31.6396 45.5062 31.7783 45.8369 31.9063C46.1782 32.0236 46.5835 32.1356 47.0529 32.2423C47.6075 32.3703 48.1035 32.5249 48.5409 32.7063C48.9889 32.8876 49.3675 33.1063 49.6769 33.3623C49.9969 33.6076 50.2369 33.8956 50.3969 34.2263C50.5675 34.5569 50.6529 34.9356 50.6529 35.3623C50.6529 36.0236 50.4875 36.6049 50.1569 37.1063C49.8262 37.5969 49.3622 37.9809 48.7649 38.2583C48.1782 38.5356 47.4902 38.6743 46.7009 38.6743Z" fill="white"/>
</svg>
