<svg width="36" height="36" viewBox="0 0 36 36" fill="none" xmlns="http://www.w3.org/2000/svg">
<path d="M11.2804 14.3632L15.3952 7.78599C15.5547 7.52603 15.7787 7.3118 16.0456 7.16417C16.3125 7.01654 16.613 6.94055 16.918 6.94359C17.1582 6.93492 17.3976 6.97449 17.6223 7.05995C17.8469 7.14541 18.0521 7.27504 18.2258 7.44117C18.3995 7.60729 18.5381 7.80655 18.6335 8.02716C18.7288 8.24777 18.779 8.48526 18.781 8.72559L18.781 13.4398L25.8928 13.4398C26.1556 13.4483 26.4136 13.5124 26.6498 13.6277C26.8861 13.7431 27.0953 13.9072 27.2636 14.1091C27.4319 14.3111 27.5556 14.5464 27.6264 14.7996C27.6973 15.0528 27.7138 15.3182 27.6748 15.5782L26.3788 23.9374C26.3235 24.3841 26.1069 24.7953 25.7698 25.0936C25.4328 25.3919 24.9983 25.5568 24.5482 25.5574L13.921 25.5573C13.4151 25.5593 12.9158 25.4428 12.463 25.2171L11.2966 24.634" stroke="#3BD822" stroke-width="3" stroke-linecap="round" stroke-linejoin="round"/>
<path d="M11.2804 14.3633L11.2804 24.5854" stroke="#3BD822" stroke-width="3" stroke-linecap="round" stroke-linejoin="round"/>
<path d="M7.44122 24.5854L11.2806 24.5855L11.2806 14.3633L7.44123 14.3633C7.2264 14.3633 7.02037 14.4486 6.86847 14.6005C6.71657 14.7524 6.63123 14.9584 6.63123 15.1733L6.63123 23.7755C6.63123 23.9903 6.71656 24.1963 6.86847 24.3482C7.02037 24.5001 7.2264 24.5854 7.44122 24.5854V24.5854Z" stroke="#3BD822" stroke-width="3" stroke-linecap="round" stroke-linejoin="round"/>
<circle cx="17.9339" cy="18.0661" r="16.4339" transform="rotate(-180 17.9339 18.0661)" stroke="#3BD822" stroke-width="3"/>
</svg>
