<svg width="29" height="29" viewBox="0 0 29 29" fill="none" xmlns="http://www.w3.org/2000/svg">
<circle cx="14.5" cy="14.5" r="14.5" fill="#F75757"/>
<path d="M10.5762 23.9565H18.4318C19.5682 23.9565 20.2318 23.3393 20.2816 22.1895L20.8042 9.97252H21.9489C22.372 9.97252 22.6955 9.63433 22.6955 9.2116C22.6955 8.78887 22.3637 8.46759 21.9489 8.46759H18.3488V7.19939C18.3488 5.84665 17.4944 5.04346 16.0676 5.04346H12.9155C11.4887 5.04346 10.6343 5.84665 10.6343 7.19939V8.46759H7.05077C6.63601 8.46759 6.3042 8.79732 6.3042 9.2116C6.3042 9.64278 6.63601 9.97252 7.05077 9.97252H8.2038L8.73469 22.1895C8.77617 23.3393 9.43978 23.9565 10.5762 23.9565ZM12.3597 7.27548C12.3597 6.89502 12.6168 6.64984 13.0316 6.64984H15.9598C16.3746 6.64984 16.6317 6.89502 16.6317 7.27548V8.46759H12.3597V7.27548ZM11.8371 21.3609C11.5053 21.3609 11.273 21.1411 11.2647 20.8029L11.0159 11.8241C11.0076 11.4859 11.2398 11.2576 11.5882 11.2576C11.92 11.2576 12.1523 11.4774 12.1606 11.8156L12.4095 20.7945C12.4261 21.1326 12.1938 21.3609 11.8371 21.3609ZM14.4999 21.3609C14.1515 21.3609 13.9192 21.1411 13.9192 20.8029V11.8156C13.9192 11.4859 14.1515 11.2576 14.4999 11.2576C14.8482 11.2576 15.0888 11.4859 15.0888 11.8156V20.8029C15.0888 21.1411 14.8482 21.3609 14.4999 21.3609ZM17.1626 21.3694C16.8059 21.3694 16.5736 21.1326 16.5902 20.8029L16.8391 11.8156C16.8474 11.4774 17.0797 11.2576 17.4115 11.2576C17.7599 11.2576 17.9921 11.4859 17.9838 11.8241L17.735 20.8029C17.7267 21.1411 17.4944 21.3694 17.1626 21.3694Z" fill="white"/>
</svg>
