<svg width="30" height="30" viewBox="0 0 30 30" fill="none" xmlns="http://www.w3.org/2000/svg">
<path d="M14.9927 30C23.2141 30 30 23.2108 30 15C30 6.78917 23.1996 0 14.9782 0C6.77139 0 0 6.78917 0 15C0 23.2108 6.78589 30 14.9927 30ZM14.9927 27.0116C8.33736 27.0116 3.01595 21.6586 3.01595 15C3.01595 8.34139 8.33736 3.0029 14.9782 3.0029C21.6336 3.0029 26.984 8.34139 26.9985 15C27.013 21.6586 21.6481 27.0116 14.9927 27.0116ZM14.6738 17.8868C15.4712 17.8868 15.9787 17.4226 16.0222 16.8279C16.0222 16.7843 16.0222 16.7118 16.0367 16.6538C16.0802 15.9139 16.5877 15.4207 17.5302 14.7969C18.9657 13.8685 19.8792 13.0271 19.8792 11.3588C19.8792 8.95068 17.7042 7.55803 15.1232 7.55803C12.6438 7.55803 10.9473 8.68955 10.4978 10.0532C10.4108 10.2998 10.3528 10.5464 10.3528 10.8075C10.3528 11.5184 10.9038 11.9536 11.5708 11.9536C12.4263 11.9536 12.6148 11.5184 13.0643 11.0251C13.5283 10.2998 14.1373 9.87911 14.9927 9.87911C16.1382 9.87911 16.8922 10.5319 16.8922 11.5039C16.8922 12.3888 16.2832 12.8675 15.0507 13.7089C14.0213 14.4342 13.2673 15.1741 13.2673 16.4797V16.6393C13.2673 17.4662 13.7748 17.8868 14.6738 17.8868ZM14.6448 22.3404C15.5727 22.3404 16.3412 21.6731 16.3412 20.7447C16.3412 19.8308 15.5872 19.1489 14.6448 19.1489C13.7023 19.1489 12.9338 19.8308 12.9338 20.7447C12.9338 21.6586 13.7023 22.3404 14.6448 22.3404Z" fill="#393A3A"/>
</svg>
