<svg width="33" height="33" viewBox="0 0 33 33" fill="none" xmlns="http://www.w3.org/2000/svg">
<path d="M15.0888 33H17.9267C18.8571 33 19.555 32.4417 19.7566 31.5268L20.532 28.2547C21.0592 28.0686 21.5555 27.867 22.0207 27.6499L24.8896 29.4178C25.6494 29.8985 26.5644 29.821 27.2002 29.1852L29.2007 27.1847C29.8365 26.5489 29.9295 25.6029 29.4178 24.8275L27.6654 21.9897C27.8825 21.5244 28.0841 21.0282 28.2392 20.5475L31.5423 19.7721C32.4572 19.5705 33 18.8727 33 17.9422V15.1508C33 14.2359 32.4572 13.5226 31.5423 13.321L28.2702 12.5301C28.0996 11.9873 27.8825 11.5066 27.6964 11.0879L29.4488 8.18797C29.945 7.39709 29.883 6.51316 29.2162 5.86184L27.2002 3.86137C26.5489 3.27209 25.727 3.16353 24.9361 3.59774L22.0207 5.39662C21.571 5.17951 21.0747 4.97791 20.5475 4.79182L19.7566 1.47321C19.555 0.558271 18.8571 0 17.9267 0H15.0888C14.1429 0 13.445 0.558271 13.2434 1.47321L12.468 4.77632C11.9408 4.9469 11.429 5.1485 10.9638 5.38111L8.06391 3.59774C7.27303 3.16353 6.46664 3.25658 5.79981 3.86137L3.78383 5.86184C3.11701 6.51316 3.05498 7.39709 3.55122 8.18797L5.30357 11.0879C5.11748 11.5066 4.91588 11.9873 4.72979 12.5301L1.45771 13.321C0.542763 13.5226 0 14.2359 0 15.1508V17.9422C0 18.8727 0.542763 19.5705 1.45771 19.7721L4.76081 20.5475C4.91588 21.0282 5.11748 21.5244 5.33459 21.9897L3.58224 24.8275C3.07049 25.6029 3.16353 26.5489 3.81485 27.1847L5.79981 29.1852C6.43562 29.821 7.35056 29.8985 8.12594 29.4178L10.9793 27.6499C11.4445 27.867 11.9408 28.0686 12.468 28.2547L13.2434 31.5268C13.445 32.4417 14.1429 33 15.0888 33ZM16.5 21.9276C13.5226 21.9276 11.0879 19.4774 11.0879 16.4845C11.0879 13.5226 13.5226 11.0879 16.5 11.0879C19.493 11.0879 21.9276 13.5226 21.9276 16.4845C21.9276 19.4774 19.493 21.9276 16.5 21.9276Z" fill="#D9D9D9"/>
</svg>
